{"title":"Season of the Witch(2011)MPEG-4[DaScubaDude]","uid":15256424,"size":1039826327,"categoryP":"video","categoryS":"movies","magnet":"?xt=urn:btih:f5fb2cac6c6f97a53ee9019ea7112eaa1b5c1e64&amp;dn=Season+of+the+Witch%282011%29MPEG-4%5BDaScubaDude%5D&amp;tr=udp%3A%2F%2Ftracker.leechers-paradise.org%3A6969&amp;tr=udp%3A%2F%2Fzer0day.ch%3A1337&amp;tr=udp%3A%2F%2Fopen.demonii.com%3A1337&amp;tr=udp%3A%2F%2Ftracker.coppersurfer.tk%3A6969&amp;tr=udp%3A%2F%2Fexodus.desync.com%3A6969","seeders":0,"leechers":0,"uploader":"dascuba","files":1,"time":1468130283,"description":"Season of the Witch (2011)\r\nPG-13 | 1h 35min | Action, Adventure, Fantasy | 7 January 2011 (USA)\r\n14th-century knights transport a suspected witch to a monastery, where monks deduce her powers could be the source of the Black Plague.\r\nDirector: Dominic Sena\r\nWriter: Bragi F. Schut (as Bragi Schut)\r\nStars: Nicolas Cage, Ron Perlman, Claire Foy | \r\n\r\nGeneral\r\nComplete name                            : SeasonoftheWitchSEASON_OF_THE_WITCH_Title2.mp4\r\nFormat                                   : MPEG-4\r\nFormat profile                           : Base Media\r\nCodec ID                                 : isom (isom/iso2/avc1/mp41)\r\nFile size                                : 992 MiB\r\nDuration                                 : 1h 34mn\r\nOverall bit rate                         : 1 462 Kbps\r\nMovie name                               : SEASON_OF_THE_WITCH\r\nGenre                                    : Thriller\r\nWriting application                      : Lavf54.6.100\r\n\r\nVideo\r\nID                                       : 1\r\nFormat                                   : AVC\r\nFormat/Info                              : Advanced Video Codec\r\nFormat profile                           :   \r\nFormat settings, CABAC                   : No\r\nFormat settings, ReFrames                : 6 frames\r\nCodec ID                                 : avc1\r\nCodec ID/Info                            : Advanced Video Coding\r\nDuration                                 : 1h 34mn\r\nBit rate                                 : 1 197 Kbps\r\nWidth                                    : 720 pixels\r\nHeight                                   : 404 pixels\r\nDisplay aspect ratio                     : 16:9\r\nFrame rate mode                          : Constant\r\nFrame rate                               : 29.970 (30000/1001) fps\r\nColor space                              : YUV\r\nChroma subsampling                       : 4:2:0\r\nBit depth                                : 8 bits\r\nScan type                                : Progressive\r\nBits/(Pixel*Frame)                       : 0.137\r\nStream size                              : 812 MiB (82%)\r\n\r\nAudio\r\nID                                       : 2\r\nFormat                                   : AAC\r\nFormat/Info                              : Advanced Audio Codec\r\nFormat profile                           : LC\r\nCodec ID                                 : 40\r\nDuration                                 : 1h 34mn\r\nBit rate mode                            : Constant\r\nBit rate                                 : 258 Kbps\r\nChannel(s)                               : 2 channels\r\nChannel(s)_Original                      : 6 channels\r\nChannel positions                        : Front: L C R, Side: L R, LFE\r\nSampling rate                            : 44.1 KHz\r\nFrame rate                               : 43.066 fps (1024 spf)\r\nCompression mode                         : Lossy\r\nStream size                              : 175 MiB (18%)\r\nDefault                                  : Yes\r\nAlternate group                          : 1","torrent":{"xt":"urn:btih:f5fb2cac6c6f97a53ee9019ea7112eaa1b5c1e64","amp;dn":"Season+of+the+Witch%282011%29MPEG-4%5BDaScubaDude%5D","amp;tr":["udp%3A%2F%2Ftracker.leechers-paradise.org%3A6969","udp%3A%2F%2Fzer0day.ch%3A1337","udp%3A%2F%2Fopen.demonii.com%3A1337","udp%3A%2F%2Ftracker.coppersurfer.tk%3A6969","udp%3A%2F%2Fexodus.desync.com%3A6969"],"infoHash":"f5fb2cac6c6f97a53ee9019ea7112eaa1b5c1e64","infoHashBuffer":{"type":"Buffer","data":[245,251,44,172,108,111,151,165,62,233,1,158,167,17,46,170,27,92,30,100]},"announce":[],"urlList":[]}}